<mxfile host="65bd71144e">
    <diagram id="zddCxgK0BgVcMAJ4Czrn" name="Page-1">
        <mxGraphModel dx="1169" dy="1321" grid="1" gridSize="10" guides="1" tooltips="1" connect="1" arrows="1" fold="1" page="1" pageScale="1" pageWidth="850" pageHeight="1100" math="0" shadow="0">
            <root>
                <mxCell id="0"/>
                <mxCell id="1" parent="0"/>
                <mxCell id="18" style="edgeStyle=none;html=1;exitX=0;exitY=0.5;exitDx=0;exitDy=0;entryX=1;entryY=0.5;entryDx=0;entryDy=0;fillColor=#d5e8d4;strokeColor=#82b366;" parent="1" source="3" target="16" edge="1">
                    <mxGeometry relative="1" as="geometry"/>
                </mxCell>
                <mxCell id="20" style="edgeStyle=none;html=1;exitX=0.5;exitY=1;exitDx=0;exitDy=0;entryX=1;entryY=0.5;entryDx=0;entryDy=0;fillColor=#d5e8d4;strokeColor=#82b366;" parent="1" source="3" target="17" edge="1">
                    <mxGeometry relative="1" as="geometry">
                        <Array as="points">
                            <mxPoint x="690" y="550"/>
                        </Array>
                    </mxGeometry>
                </mxCell>
                <mxCell id="39" style="edgeStyle=none;html=1;exitX=0.5;exitY=0;exitDx=0;exitDy=0;entryX=0.5;entryY=1;entryDx=0;entryDy=0;fillColor=#d5e8d4;strokeColor=#82b366;" parent="1" source="3" target="38" edge="1">
                    <mxGeometry relative="1" as="geometry"/>
                </mxCell>
                <mxCell id="49" style="edgeStyle=none;html=1;exitX=1;exitY=0.5;exitDx=0;exitDy=0;entryX=0;entryY=0.5;entryDx=0;entryDy=0;fillColor=#d5e8d4;strokeColor=#82b366;" parent="1" source="3" target="48" edge="1">
                    <mxGeometry relative="1" as="geometry"/>
                </mxCell>
                <mxCell id="77" style="edgeStyle=none;html=1;exitX=0.75;exitY=1;exitDx=0;exitDy=0;fillColor=#d5e8d4;strokeColor=#82b366;" parent="1" source="3" edge="1">
                    <mxGeometry relative="1" as="geometry">
                        <mxPoint x="720" y="570" as="targetPoint"/>
                    </mxGeometry>
                </mxCell>
                <mxCell id="3" value="usuario" style="rounded=0;whiteSpace=wrap;html=1;fillColor=#d5e8d4;strokeColor=#82b366;" parent="1" vertex="1">
                    <mxGeometry x="630" y="370" width="120" height="60" as="geometry"/>
                </mxCell>
                <mxCell id="26" style="edgeStyle=none;html=1;exitX=0;exitY=0.5;exitDx=0;exitDy=0;fillColor=#d5e8d4;strokeColor=#82b366;" parent="1" source="4" edge="1">
                    <mxGeometry relative="1" as="geometry">
                        <mxPoint x="200" y="400" as="targetPoint"/>
                    </mxGeometry>
                </mxCell>
                <mxCell id="110" style="edgeStyle=none;html=1;exitX=0;exitY=0;exitDx=0;exitDy=0;entryX=0.5;entryY=1;entryDx=0;entryDy=0;fillColor=#d5e8d4;strokeColor=#82b366;" parent="1" source="4" target="109" edge="1">
                    <mxGeometry relative="1" as="geometry"/>
                </mxCell>
                <mxCell id="4" value="celular" style="rounded=0;whiteSpace=wrap;html=1;fillColor=#d5e8d4;strokeColor=#82b366;" parent="1" vertex="1">
                    <mxGeometry x="280" y="370" width="120" height="60" as="geometry"/>
                </mxCell>
                <mxCell id="27" style="edgeStyle=none;html=1;exitX=1;exitY=0.5;exitDx=0;exitDy=0;fillColor=#d5e8d4;strokeColor=#82b366;" parent="1" source="6" edge="1">
                    <mxGeometry relative="1" as="geometry">
                        <mxPoint x="201.0000000000001" y="288.9310344827586" as="targetPoint"/>
                    </mxGeometry>
                </mxCell>
                <mxCell id="6" value="&lt;u&gt;id&lt;/u&gt;" style="ellipse;whiteSpace=wrap;html=1;fillColor=#d5e8d4;strokeColor=#82b366;" parent="1" vertex="1">
                    <mxGeometry x="111" y="269" width="60" height="40" as="geometry"/>
                </mxCell>
                <mxCell id="28" style="edgeStyle=none;html=1;exitX=1;exitY=0.5;exitDx=0;exitDy=0;fillColor=#d5e8d4;strokeColor=#82b366;" parent="1" source="7" edge="1">
                    <mxGeometry relative="1" as="geometry">
                        <mxPoint x="201.0000000000001" y="339.2758620689656" as="targetPoint"/>
                    </mxGeometry>
                </mxCell>
                <mxCell id="7" value="stock" style="ellipse;whiteSpace=wrap;html=1;fillColor=#d5e8d4;strokeColor=#82b366;" parent="1" vertex="1">
                    <mxGeometry x="111" y="319" width="60" height="40" as="geometry"/>
                </mxCell>
                <mxCell id="29" style="edgeStyle=none;html=1;exitX=1;exitY=0.5;exitDx=0;exitDy=0;fillColor=#d5e8d4;strokeColor=#82b366;" parent="1" source="8" edge="1">
                    <mxGeometry relative="1" as="geometry">
                        <mxPoint x="201.0000000000001" y="388.9310344827586" as="targetPoint"/>
                    </mxGeometry>
                </mxCell>
                <mxCell id="8" value="descripcion" style="ellipse;whiteSpace=wrap;html=1;fillColor=#d5e8d4;strokeColor=#82b366;" parent="1" vertex="1">
                    <mxGeometry x="111" y="369" width="60" height="40" as="geometry"/>
                </mxCell>
                <mxCell id="36" style="edgeStyle=none;html=1;exitX=1;exitY=0.5;exitDx=0;exitDy=0;fillColor=#d5e8d4;strokeColor=#82b366;" parent="1" source="14" edge="1">
                    <mxGeometry relative="1" as="geometry">
                        <mxPoint x="201.0000000000001" y="438.9310344827586" as="targetPoint"/>
                    </mxGeometry>
                </mxCell>
                <mxCell id="14" value="precio" style="ellipse;whiteSpace=wrap;html=1;fillColor=#d5e8d4;strokeColor=#82b366;" parent="1" vertex="1">
                    <mxGeometry x="111" y="419" width="60" height="40" as="geometry"/>
                </mxCell>
                <mxCell id="37" style="edgeStyle=none;html=1;exitX=1;exitY=0.5;exitDx=0;exitDy=0;fillColor=#d5e8d4;strokeColor=#82b366;" parent="1" source="15" edge="1">
                    <mxGeometry relative="1" as="geometry">
                        <mxPoint x="201.0000000000001" y="489.2758620689656" as="targetPoint"/>
                    </mxGeometry>
                </mxCell>
                <mxCell id="15" value="bateria" style="ellipse;whiteSpace=wrap;html=1;fillColor=#d5e8d4;strokeColor=#82b366;" parent="1" vertex="1">
                    <mxGeometry x="111" y="469" width="60" height="40" as="geometry"/>
                </mxCell>
                <mxCell id="19" style="edgeStyle=none;html=1;exitX=0;exitY=0.5;exitDx=0;exitDy=0;entryX=1;entryY=0.5;entryDx=0;entryDy=0;fillColor=#d5e8d4;strokeColor=#82b366;" parent="1" source="16" target="4" edge="1">
                    <mxGeometry relative="1" as="geometry"/>
                </mxCell>
                <mxCell id="16" value="compra" style="rhombus;whiteSpace=wrap;html=1;fillColor=#d5e8d4;strokeColor=#82b366;" parent="1" vertex="1">
                    <mxGeometry x="480" y="370" width="70" height="60" as="geometry"/>
                </mxCell>
                <mxCell id="21" style="edgeStyle=none;html=1;exitX=0;exitY=0.5;exitDx=0;exitDy=0;entryX=0.5;entryY=1;entryDx=0;entryDy=0;fillColor=#d5e8d4;strokeColor=#82b366;" parent="1" source="17" target="4" edge="1">
                    <mxGeometry relative="1" as="geometry">
                        <Array as="points">
                            <mxPoint x="340" y="550"/>
                        </Array>
                    </mxGeometry>
                </mxCell>
                <mxCell id="17" value="administra" style="rhombus;whiteSpace=wrap;html=1;fillColor=#d5e8d4;strokeColor=#82b366;" parent="1" vertex="1">
                    <mxGeometry x="480" y="520" width="70" height="60" as="geometry"/>
                </mxCell>
                <mxCell id="22" value="1..*" style="text;html=1;align=center;verticalAlign=middle;resizable=0;points=[];autosize=1;strokeColor=none;fillColor=none;" parent="1" vertex="1">
                    <mxGeometry x="385" y="430" width="40" height="30" as="geometry"/>
                </mxCell>
                <mxCell id="23" value="1" style="text;html=1;align=center;verticalAlign=middle;resizable=0;points=[];autosize=1;strokeColor=none;fillColor=none;" parent="1" vertex="1">
                    <mxGeometry x="599" y="398" width="30" height="30" as="geometry"/>
                </mxCell>
                <mxCell id="24" value="" style="endArrow=none;html=1;fillColor=#d5e8d4;strokeColor=#82b366;" parent="1" edge="1">
                    <mxGeometry width="50" height="50" relative="1" as="geometry">
                        <mxPoint x="201" y="544" as="sourcePoint"/>
                        <mxPoint x="201" y="284" as="targetPoint"/>
                    </mxGeometry>
                </mxCell>
                <mxCell id="41" style="edgeStyle=none;html=1;exitX=0;exitY=0.5;exitDx=0;exitDy=0;entryX=1;entryY=0.5;entryDx=0;entryDy=0;fillColor=#d5e8d4;strokeColor=#82b366;" parent="1" source="38" target="40" edge="1">
                    <mxGeometry relative="1" as="geometry"/>
                </mxCell>
                <mxCell id="98" style="edgeStyle=none;html=1;exitX=0.5;exitY=0;exitDx=0;exitDy=0;fillColor=#d5e8d4;strokeColor=#82b366;" parent="1" source="38" edge="1">
                    <mxGeometry relative="1" as="geometry">
                        <mxPoint x="689.9354838709678" y="190" as="targetPoint"/>
                    </mxGeometry>
                </mxCell>
                <mxCell id="38" value="carrito" style="rounded=0;whiteSpace=wrap;html=1;fillColor=#d5e8d4;strokeColor=#82b366;" parent="1" vertex="1">
                    <mxGeometry x="630" y="220" width="120" height="60" as="geometry"/>
                </mxCell>
                <mxCell id="42" style="edgeStyle=none;html=1;exitX=0;exitY=0.5;exitDx=0;exitDy=0;entryX=0.5;entryY=0;entryDx=0;entryDy=0;fillColor=#d5e8d4;strokeColor=#82b366;" parent="1" source="40" target="4" edge="1">
                    <mxGeometry relative="1" as="geometry">
                        <Array as="points">
                            <mxPoint x="340" y="250"/>
                        </Array>
                    </mxGeometry>
                </mxCell>
                <mxCell id="40" value="guarda" style="rhombus;whiteSpace=wrap;html=1;fillColor=#d5e8d4;strokeColor=#82b366;" parent="1" vertex="1">
                    <mxGeometry x="480" y="220" width="70" height="60" as="geometry"/>
                </mxCell>
                <mxCell id="43" value="1..*" style="text;html=1;align=center;verticalAlign=middle;resizable=0;points=[];autosize=1;strokeColor=none;fillColor=none;" parent="1" vertex="1">
                    <mxGeometry x="340" y="336" width="40" height="30" as="geometry"/>
                </mxCell>
                <mxCell id="44" value="1" style="text;html=1;align=center;verticalAlign=middle;resizable=0;points=[];autosize=1;strokeColor=none;fillColor=none;" parent="1" vertex="1">
                    <mxGeometry x="656" y="279" width="30" height="30" as="geometry"/>
                </mxCell>
                <mxCell id="46" style="edgeStyle=none;html=1;exitX=1;exitY=0.5;exitDx=0;exitDy=0;fillColor=#d5e8d4;strokeColor=#82b366;" parent="1" source="45" edge="1">
                    <mxGeometry relative="1" as="geometry">
                        <mxPoint x="201" y="537" as="targetPoint"/>
                    </mxGeometry>
                </mxCell>
                <mxCell id="45" value="activo" style="ellipse;whiteSpace=wrap;html=1;fillColor=#d5e8d4;strokeColor=#82b366;" parent="1" vertex="1">
                    <mxGeometry x="111" y="517" width="60" height="40" as="geometry"/>
                </mxCell>
                <mxCell id="63" style="edgeStyle=none;html=1;exitX=1;exitY=0.5;exitDx=0;exitDy=0;fillColor=#d5e8d4;strokeColor=#82b366;" parent="1" source="47" edge="1">
                    <mxGeometry relative="1" as="geometry">
                        <mxPoint x="1090" y="400" as="targetPoint"/>
                    </mxGeometry>
                </mxCell>
                <mxCell id="161" style="edgeStyle=none;html=1;exitX=0.5;exitY=0;exitDx=0;exitDy=0;entryX=0.5;entryY=1;entryDx=0;entryDy=0;fillColor=#d5e8d4;strokeColor=#82b366;" parent="1" source="47" target="157" edge="1">
                    <mxGeometry relative="1" as="geometry"/>
                </mxCell>
                <mxCell id="163" style="edgeStyle=none;html=1;exitX=0.5;exitY=1;exitDx=0;exitDy=0;fillColor=#d5e8d4;strokeColor=#82b366;" parent="1" source="47" edge="1">
                    <mxGeometry relative="1" as="geometry">
                        <mxPoint x="1000" y="520" as="targetPoint"/>
                    </mxGeometry>
                </mxCell>
                <mxCell id="47" value="venta" style="rounded=0;whiteSpace=wrap;html=1;fillColor=#d5e8d4;strokeColor=#82b366;" parent="1" vertex="1">
                    <mxGeometry x="940" y="370" width="120" height="60" as="geometry"/>
                </mxCell>
                <mxCell id="50" style="edgeStyle=none;html=1;exitX=1;exitY=0.5;exitDx=0;exitDy=0;entryX=0;entryY=0.5;entryDx=0;entryDy=0;fillColor=#d5e8d4;strokeColor=#82b366;" parent="1" source="48" target="47" edge="1">
                    <mxGeometry relative="1" as="geometry"/>
                </mxCell>
                <mxCell id="48" value="genera" style="rhombus;whiteSpace=wrap;html=1;fillColor=#d5e8d4;strokeColor=#82b366;" parent="1" vertex="1">
                    <mxGeometry x="810" y="370" width="70" height="60" as="geometry"/>
                </mxCell>
                <mxCell id="51" value="1" style="text;html=1;align=center;verticalAlign=middle;resizable=0;points=[];autosize=1;strokeColor=none;fillColor=none;" parent="1" vertex="1">
                    <mxGeometry x="750" y="371" width="30" height="30" as="geometry"/>
                </mxCell>
                <mxCell id="52" value="1..*" style="text;html=1;align=center;verticalAlign=middle;resizable=0;points=[];autosize=1;strokeColor=none;fillColor=none;" parent="1" vertex="1">
                    <mxGeometry x="899" y="366" width="40" height="30" as="geometry"/>
                </mxCell>
                <mxCell id="68" style="edgeStyle=none;html=1;exitX=0;exitY=0.5;exitDx=0;exitDy=0;fillColor=#d5e8d4;strokeColor=#82b366;" parent="1" source="53" edge="1">
                    <mxGeometry relative="1" as="geometry">
                        <mxPoint x="1090" y="300" as="targetPoint"/>
                    </mxGeometry>
                </mxCell>
                <mxCell id="53" value="&lt;u&gt;id&lt;/u&gt;" style="ellipse;whiteSpace=wrap;html=1;fillColor=#d5e8d4;strokeColor=#82b366;" parent="1" vertex="1">
                    <mxGeometry x="1120" y="280" width="60" height="40" as="geometry"/>
                </mxCell>
                <mxCell id="67" style="edgeStyle=none;html=1;exitX=0;exitY=0.5;exitDx=0;exitDy=0;fillColor=#d5e8d4;strokeColor=#82b366;" parent="1" source="54" edge="1">
                    <mxGeometry relative="1" as="geometry">
                        <mxPoint x="1090" y="350" as="targetPoint"/>
                    </mxGeometry>
                </mxCell>
                <mxCell id="54" value="fecha" style="ellipse;whiteSpace=wrap;html=1;fillColor=#d5e8d4;strokeColor=#82b366;" parent="1" vertex="1">
                    <mxGeometry x="1120" y="330" width="60" height="40" as="geometry"/>
                </mxCell>
                <mxCell id="66" style="edgeStyle=none;html=1;exitX=0;exitY=0.5;exitDx=0;exitDy=0;fillColor=#d5e8d4;strokeColor=#82b366;" parent="1" source="55" edge="1">
                    <mxGeometry relative="1" as="geometry">
                        <mxPoint x="1090" y="400" as="targetPoint"/>
                    </mxGeometry>
                </mxCell>
                <mxCell id="55" value="hora" style="ellipse;whiteSpace=wrap;html=1;fillColor=#d5e8d4;strokeColor=#82b366;" parent="1" vertex="1">
                    <mxGeometry x="1120" y="380" width="60" height="40" as="geometry"/>
                </mxCell>
                <mxCell id="71" style="edgeStyle=none;html=1;exitX=0;exitY=0.5;exitDx=0;exitDy=0;fillColor=#d5e8d4;strokeColor=#82b366;" parent="1" source="57" edge="1">
                    <mxGeometry relative="1" as="geometry">
                        <mxPoint x="1090" y="452" as="targetPoint"/>
                    </mxGeometry>
                </mxCell>
                <mxCell id="57" value="monto" style="ellipse;whiteSpace=wrap;html=1;fillColor=#d5e8d4;strokeColor=#82b366;" parent="1" vertex="1">
                    <mxGeometry x="1120" y="432" width="60" height="40" as="geometry"/>
                </mxCell>
                <mxCell id="73" style="edgeStyle=none;html=1;exitX=0;exitY=0.5;exitDx=0;exitDy=0;fillColor=#d5e8d4;strokeColor=#82b366;" parent="1" source="60" edge="1">
                    <mxGeometry relative="1" as="geometry">
                        <mxPoint x="1090" y="504" as="targetPoint"/>
                    </mxGeometry>
                </mxCell>
                <mxCell id="60" value="direccion" style="ellipse;whiteSpace=wrap;html=1;fillColor=#d5e8d4;strokeColor=#82b366;" parent="1" vertex="1">
                    <mxGeometry x="1120" y="484" width="60" height="40" as="geometry"/>
                </mxCell>
                <mxCell id="62" value="" style="endArrow=none;html=1;fillColor=#d5e8d4;strokeColor=#82b366;" parent="1" edge="1">
                    <mxGeometry width="50" height="50" relative="1" as="geometry">
                        <mxPoint x="1090" y="510" as="sourcePoint"/>
                        <mxPoint x="1090" y="300" as="targetPoint"/>
                    </mxGeometry>
                </mxCell>
                <mxCell id="91" style="edgeStyle=none;html=1;exitX=0.5;exitY=0;exitDx=0;exitDy=0;fillColor=#d5e8d4;strokeColor=#82b366;" parent="1" source="83" edge="1">
                    <mxGeometry relative="1" as="geometry">
                        <mxPoint x="589" y="574" as="targetPoint"/>
                    </mxGeometry>
                </mxCell>
                <mxCell id="83" value="&lt;u&gt;id&lt;/u&gt;" style="ellipse;whiteSpace=wrap;html=1;fillColor=#d5e8d4;strokeColor=#82b366;" parent="1" vertex="1">
                    <mxGeometry x="559" y="592" width="60" height="40" as="geometry"/>
                </mxCell>
                <mxCell id="92" style="edgeStyle=none;html=1;exitX=0.5;exitY=0;exitDx=0;exitDy=0;fillColor=#d5e8d4;strokeColor=#82b366;" parent="1" source="84" edge="1">
                    <mxGeometry relative="1" as="geometry">
                        <mxPoint x="656" y="574" as="targetPoint"/>
                    </mxGeometry>
                </mxCell>
                <mxCell id="84" value="nombre" style="ellipse;whiteSpace=wrap;html=1;fillColor=#d5e8d4;strokeColor=#82b366;" parent="1" vertex="1">
                    <mxGeometry x="626" y="592" width="60" height="40" as="geometry"/>
                </mxCell>
                <mxCell id="93" style="edgeStyle=none;html=1;exitX=0.5;exitY=0;exitDx=0;exitDy=0;fillColor=#d5e8d4;strokeColor=#82b366;" parent="1" source="85" edge="1">
                    <mxGeometry relative="1" as="geometry">
                        <mxPoint x="720" y="574" as="targetPoint"/>
                    </mxGeometry>
                </mxCell>
                <mxCell id="85" value="email" style="ellipse;whiteSpace=wrap;html=1;fillColor=#d5e8d4;strokeColor=#82b366;" parent="1" vertex="1">
                    <mxGeometry x="690" y="592" width="60" height="40" as="geometry"/>
                </mxCell>
                <mxCell id="94" style="edgeStyle=none;html=1;exitX=0.5;exitY=0;exitDx=0;exitDy=0;fillColor=#d5e8d4;strokeColor=#82b366;" parent="1" source="86" edge="1">
                    <mxGeometry relative="1" as="geometry">
                        <mxPoint x="787" y="574" as="targetPoint"/>
                    </mxGeometry>
                </mxCell>
                <mxCell id="86" value="contraseña" style="ellipse;whiteSpace=wrap;html=1;fillColor=#d5e8d4;strokeColor=#82b366;" parent="1" vertex="1">
                    <mxGeometry x="757" y="592" width="60" height="40" as="geometry"/>
                </mxCell>
                <mxCell id="88" value="" style="endArrow=none;html=1;fillColor=#d5e8d4;strokeColor=#82b366;" parent="1" edge="1">
                    <mxGeometry width="50" height="50" relative="1" as="geometry">
                        <mxPoint x="586" y="571.5" as="sourcePoint"/>
                        <mxPoint x="866" y="572" as="targetPoint"/>
                    </mxGeometry>
                </mxCell>
                <mxCell id="100" style="edgeStyle=none;html=1;exitX=0.5;exitY=1;exitDx=0;exitDy=0;fillColor=#d5e8d4;strokeColor=#82b366;" parent="1" source="96" edge="1">
                    <mxGeometry relative="1" as="geometry">
                        <mxPoint x="689.7741935483871" y="190" as="targetPoint"/>
                    </mxGeometry>
                </mxCell>
                <mxCell id="96" value="&lt;u&gt;id&lt;/u&gt;" style="ellipse;whiteSpace=wrap;html=1;fillColor=#d5e8d4;strokeColor=#82b366;" parent="1" vertex="1">
                    <mxGeometry x="660" y="130" width="60" height="40" as="geometry"/>
                </mxCell>
                <mxCell id="105" style="edgeStyle=none;html=1;exitX=0.5;exitY=0;exitDx=0;exitDy=0;fillColor=#d5e8d4;strokeColor=#82b366;" parent="1" source="106" edge="1">
                    <mxGeometry relative="1" as="geometry">
                        <mxPoint x="854" y="573" as="targetPoint"/>
                    </mxGeometry>
                </mxCell>
                <mxCell id="106" value="rol" style="ellipse;whiteSpace=wrap;html=1;fillColor=#d5e8d4;strokeColor=#82b366;" parent="1" vertex="1">
                    <mxGeometry x="824" y="591" width="60" height="40" as="geometry"/>
                </mxCell>
                <mxCell id="116" style="edgeStyle=none;html=1;exitX=0.5;exitY=0;exitDx=0;exitDy=0;entryX=0.5;entryY=1;entryDx=0;entryDy=0;fillColor=#d5e8d4;strokeColor=#82b366;" parent="1" source="109" target="113" edge="1">
                    <mxGeometry relative="1" as="geometry"/>
                </mxCell>
                <mxCell id="117" style="edgeStyle=none;html=1;exitX=0;exitY=0;exitDx=0;exitDy=0;entryX=0.5;entryY=1;entryDx=0;entryDy=0;fillColor=#d5e8d4;strokeColor=#82b366;" parent="1" source="109" target="111" edge="1">
                    <mxGeometry relative="1" as="geometry"/>
                </mxCell>
                <mxCell id="118" style="edgeStyle=none;html=1;exitX=0;exitY=0.5;exitDx=0;exitDy=0;entryX=0.5;entryY=1;entryDx=0;entryDy=0;fillColor=#d5e8d4;strokeColor=#82b366;" parent="1" source="109" target="114" edge="1">
                    <mxGeometry relative="1" as="geometry"/>
                </mxCell>
                <mxCell id="119" style="edgeStyle=none;html=1;exitX=1;exitY=0;exitDx=0;exitDy=0;entryX=0.5;entryY=1;entryDx=0;entryDy=0;fillColor=#d5e8d4;strokeColor=#82b366;" parent="1" source="109" target="112" edge="1">
                    <mxGeometry relative="1" as="geometry"/>
                </mxCell>
                <mxCell id="120" style="edgeStyle=none;html=1;exitX=1;exitY=0.5;exitDx=0;exitDy=0;entryX=0.5;entryY=1;entryDx=0;entryDy=0;fillColor=#d5e8d4;strokeColor=#82b366;" parent="1" source="109" target="115" edge="1">
                    <mxGeometry relative="1" as="geometry"/>
                </mxCell>
                <mxCell id="109" value="tiene" style="rhombus;whiteSpace=wrap;html=1;fillColor=#d5e8d4;strokeColor=#82b366;" parent="1" vertex="1">
                    <mxGeometry x="245" y="100" width="70" height="60" as="geometry"/>
                </mxCell>
                <mxCell id="148" style="edgeStyle=none;html=1;exitX=0.5;exitY=0;exitDx=0;exitDy=0;fillColor=#d5e8d4;strokeColor=#82b366;" parent="1" source="111" edge="1">
                    <mxGeometry relative="1" as="geometry">
                        <mxPoint x="126.3809523809523" y="-170" as="targetPoint"/>
                    </mxGeometry>
                </mxCell>
                <mxCell id="111" value="modelo" style="rounded=0;whiteSpace=wrap;html=1;fillColor=#d5e8d4;strokeColor=#82b366;" parent="1" vertex="1">
                    <mxGeometry x="66" y="-60" width="120" height="60" as="geometry"/>
                </mxCell>
                <mxCell id="136" style="edgeStyle=none;html=1;exitX=0.5;exitY=0;exitDx=0;exitDy=0;fillColor=#d5e8d4;strokeColor=#82b366;" parent="1" source="112" edge="1">
                    <mxGeometry relative="1" as="geometry">
                        <mxPoint x="434.95238095238096" y="-170" as="targetPoint"/>
                    </mxGeometry>
                </mxCell>
                <mxCell id="112" value="color" style="rounded=0;whiteSpace=wrap;html=1;fillColor=#d5e8d4;strokeColor=#82b366;" parent="1" vertex="1">
                    <mxGeometry x="375" y="-60" width="120" height="60" as="geometry"/>
                </mxCell>
                <mxCell id="128" style="edgeStyle=none;html=1;exitX=0.5;exitY=0;exitDx=0;exitDy=0;fillColor=#d5e8d4;strokeColor=#82b366;" parent="1" source="113" edge="1">
                    <mxGeometry relative="1" as="geometry">
                        <mxPoint x="279.71428571428555" y="-100" as="targetPoint"/>
                    </mxGeometry>
                </mxCell>
                <mxCell id="113" value="condicion" style="rounded=0;whiteSpace=wrap;html=1;fillColor=#d5e8d4;strokeColor=#82b366;" parent="1" vertex="1">
                    <mxGeometry x="220" y="-60" width="120" height="60" as="geometry"/>
                </mxCell>
                <mxCell id="156" style="edgeStyle=none;html=1;exitX=0.5;exitY=0;exitDx=0;exitDy=0;fillColor=#d5e8d4;strokeColor=#82b366;" parent="1" source="114" edge="1">
                    <mxGeometry relative="1" as="geometry">
                        <mxPoint x="-25.047619047619037" y="-100" as="targetPoint"/>
                    </mxGeometry>
                </mxCell>
                <mxCell id="114" value="almacenamiento" style="rounded=0;whiteSpace=wrap;html=1;fillColor=#d5e8d4;strokeColor=#82b366;" parent="1" vertex="1">
                    <mxGeometry x="-85" y="-60" width="120" height="60" as="geometry"/>
                </mxCell>
                <mxCell id="147" style="edgeStyle=none;html=1;exitX=0.5;exitY=0;exitDx=0;exitDy=0;fillColor=#d5e8d4;strokeColor=#82b366;" parent="1" source="115" edge="1">
                    <mxGeometry relative="1" as="geometry">
                        <mxPoint x="585.4285714285716" y="-100" as="targetPoint"/>
                    </mxGeometry>
                </mxCell>
                <mxCell id="115" value="marca" style="rounded=0;whiteSpace=wrap;html=1;fillColor=#d5e8d4;strokeColor=#82b366;" parent="1" vertex="1">
                    <mxGeometry x="525" y="-60" width="120" height="60" as="geometry"/>
                </mxCell>
                <mxCell id="121" style="edgeStyle=none;html=1;exitX=0.5;exitY=1;exitDx=0;exitDy=0;fillColor=#d5e8d4;strokeColor=#82b366;" parent="1" source="122" edge="1">
                    <mxGeometry relative="1" as="geometry">
                        <mxPoint x="210.0967741935483" y="-100" as="targetPoint"/>
                    </mxGeometry>
                </mxCell>
                <mxCell id="122" value="nombre" style="ellipse;whiteSpace=wrap;html=1;fillColor=#d5e8d4;strokeColor=#82b366;" parent="1" vertex="1">
                    <mxGeometry x="180" y="-160" width="60" height="40" as="geometry"/>
                </mxCell>
                <mxCell id="123" style="edgeStyle=none;html=1;exitX=0.5;exitY=1;exitDx=0;exitDy=0;fillColor=#d5e8d4;strokeColor=#82b366;" parent="1" source="124" edge="1">
                    <mxGeometry relative="1" as="geometry">
                        <mxPoint x="279.7741935483871" y="-100" as="targetPoint"/>
                    </mxGeometry>
                </mxCell>
                <mxCell id="124" value="&lt;u&gt;id&lt;/u&gt;" style="ellipse;whiteSpace=wrap;html=1;fillColor=#d5e8d4;strokeColor=#82b366;" parent="1" vertex="1">
                    <mxGeometry x="250" y="-160" width="60" height="40" as="geometry"/>
                </mxCell>
                <mxCell id="125" value="" style="endArrow=none;html=1;fillColor=#d5e8d4;strokeColor=#82b366;" parent="1" edge="1">
                    <mxGeometry width="50" height="50" relative="1" as="geometry">
                        <mxPoint x="205" y="-100" as="sourcePoint"/>
                        <mxPoint x="353" y="-100" as="targetPoint"/>
                    </mxGeometry>
                </mxCell>
                <mxCell id="126" style="edgeStyle=none;html=1;exitX=0.5;exitY=1;exitDx=0;exitDy=0;fillColor=#d5e8d4;strokeColor=#82b366;" parent="1" source="127" edge="1">
                    <mxGeometry relative="1" as="geometry">
                        <mxPoint x="350.1111111111111" y="-100" as="targetPoint"/>
                    </mxGeometry>
                </mxCell>
                <mxCell id="127" value="observacion" style="ellipse;whiteSpace=wrap;html=1;fillColor=#d5e8d4;strokeColor=#82b366;" parent="1" vertex="1">
                    <mxGeometry x="320" y="-160" width="60" height="40" as="geometry"/>
                </mxCell>
                <mxCell id="129" style="edgeStyle=none;html=1;exitX=0.5;exitY=1;exitDx=0;exitDy=0;fillColor=#d5e8d4;strokeColor=#82b366;" parent="1" source="130" edge="1">
                    <mxGeometry relative="1" as="geometry">
                        <mxPoint x="400.0967741935483" y="-170" as="targetPoint"/>
                    </mxGeometry>
                </mxCell>
                <mxCell id="130" value="nombre" style="ellipse;whiteSpace=wrap;html=1;fillColor=#d5e8d4;strokeColor=#82b366;" parent="1" vertex="1">
                    <mxGeometry x="370" y="-230" width="60" height="40" as="geometry"/>
                </mxCell>
                <mxCell id="131" style="edgeStyle=none;html=1;exitX=0.5;exitY=1;exitDx=0;exitDy=0;fillColor=#d5e8d4;strokeColor=#82b366;" parent="1" source="132" edge="1">
                    <mxGeometry relative="1" as="geometry">
                        <mxPoint x="469.7741935483871" y="-170" as="targetPoint"/>
                    </mxGeometry>
                </mxCell>
                <mxCell id="132" value="&lt;u&gt;id&lt;/u&gt;" style="ellipse;whiteSpace=wrap;html=1;fillColor=#d5e8d4;strokeColor=#82b366;" parent="1" vertex="1">
                    <mxGeometry x="440" y="-230" width="60" height="40" as="geometry"/>
                </mxCell>
                <mxCell id="133" value="" style="endArrow=none;html=1;fillColor=#d5e8d4;strokeColor=#82b366;" parent="1" edge="1">
                    <mxGeometry width="50" height="50" relative="1" as="geometry">
                        <mxPoint x="395" y="-170" as="sourcePoint"/>
                        <mxPoint x="471" y="-169.52" as="targetPoint"/>
                    </mxGeometry>
                </mxCell>
                <mxCell id="137" style="edgeStyle=none;html=1;exitX=0.5;exitY=1;exitDx=0;exitDy=0;fillColor=#d5e8d4;strokeColor=#82b366;" parent="1" source="138" edge="1">
                    <mxGeometry relative="1" as="geometry">
                        <mxPoint x="553.0967741935483" y="-100" as="targetPoint"/>
                    </mxGeometry>
                </mxCell>
                <mxCell id="138" value="nombre" style="ellipse;whiteSpace=wrap;html=1;fillColor=#d5e8d4;strokeColor=#82b366;" parent="1" vertex="1">
                    <mxGeometry x="523" y="-160" width="60" height="40" as="geometry"/>
                </mxCell>
                <mxCell id="139" style="edgeStyle=none;html=1;exitX=0.5;exitY=1;exitDx=0;exitDy=0;fillColor=#d5e8d4;strokeColor=#82b366;" parent="1" source="140" edge="1">
                    <mxGeometry relative="1" as="geometry">
                        <mxPoint x="622.7741935483871" y="-100" as="targetPoint"/>
                    </mxGeometry>
                </mxCell>
                <mxCell id="140" value="&lt;u&gt;id&lt;/u&gt;" style="ellipse;whiteSpace=wrap;html=1;fillColor=#d5e8d4;strokeColor=#82b366;" parent="1" vertex="1">
                    <mxGeometry x="593" y="-160" width="60" height="40" as="geometry"/>
                </mxCell>
                <mxCell id="141" value="" style="endArrow=none;html=1;fillColor=#d5e8d4;strokeColor=#82b366;" parent="1" edge="1">
                    <mxGeometry width="50" height="50" relative="1" as="geometry">
                        <mxPoint x="548" y="-100" as="sourcePoint"/>
                        <mxPoint x="624" y="-99.52000000000001" as="targetPoint"/>
                    </mxGeometry>
                </mxCell>
                <mxCell id="142" style="edgeStyle=none;html=1;exitX=0.5;exitY=1;exitDx=0;exitDy=0;fillColor=#d5e8d4;strokeColor=#82b366;" parent="1" source="143" edge="1">
                    <mxGeometry relative="1" as="geometry">
                        <mxPoint x="92.0967741935483" y="-170" as="targetPoint"/>
                    </mxGeometry>
                </mxCell>
                <mxCell id="143" value="nombre" style="ellipse;whiteSpace=wrap;html=1;fillColor=#d5e8d4;strokeColor=#82b366;" parent="1" vertex="1">
                    <mxGeometry x="62" y="-230" width="60" height="40" as="geometry"/>
                </mxCell>
                <mxCell id="144" style="edgeStyle=none;html=1;exitX=0.5;exitY=1;exitDx=0;exitDy=0;fillColor=#d5e8d4;strokeColor=#82b366;" parent="1" source="145" edge="1">
                    <mxGeometry relative="1" as="geometry">
                        <mxPoint x="161.77419354838707" y="-170" as="targetPoint"/>
                    </mxGeometry>
                </mxCell>
                <mxCell id="145" value="&lt;u&gt;id&lt;/u&gt;" style="ellipse;whiteSpace=wrap;html=1;fillColor=#d5e8d4;strokeColor=#82b366;" parent="1" vertex="1">
                    <mxGeometry x="132" y="-230" width="60" height="40" as="geometry"/>
                </mxCell>
                <mxCell id="146" value="" style="endArrow=none;html=1;fillColor=#d5e8d4;strokeColor=#82b366;" parent="1" edge="1">
                    <mxGeometry width="50" height="50" relative="1" as="geometry">
                        <mxPoint x="87" y="-170" as="sourcePoint"/>
                        <mxPoint x="163" y="-169.52" as="targetPoint"/>
                    </mxGeometry>
                </mxCell>
                <mxCell id="149" style="edgeStyle=none;html=1;exitX=0.5;exitY=1;exitDx=0;exitDy=0;fillColor=#d5e8d4;strokeColor=#82b366;" parent="1" source="150" edge="1">
                    <mxGeometry relative="1" as="geometry">
                        <mxPoint x="-94.9032258064517" y="-100" as="targetPoint"/>
                    </mxGeometry>
                </mxCell>
                <mxCell id="150" value="unidad" style="ellipse;whiteSpace=wrap;html=1;fillColor=#d5e8d4;strokeColor=#82b366;" parent="1" vertex="1">
                    <mxGeometry x="-125" y="-160" width="60" height="40" as="geometry"/>
                </mxCell>
                <mxCell id="151" style="edgeStyle=none;html=1;exitX=0.5;exitY=1;exitDx=0;exitDy=0;fillColor=#d5e8d4;strokeColor=#82b366;" parent="1" source="152" edge="1">
                    <mxGeometry relative="1" as="geometry">
                        <mxPoint x="-25.225806451612925" y="-100" as="targetPoint"/>
                    </mxGeometry>
                </mxCell>
                <mxCell id="152" value="&lt;u&gt;id&lt;/u&gt;" style="ellipse;whiteSpace=wrap;html=1;fillColor=#d5e8d4;strokeColor=#82b366;" parent="1" vertex="1">
                    <mxGeometry x="-55" y="-160" width="60" height="40" as="geometry"/>
                </mxCell>
                <mxCell id="153" value="" style="endArrow=none;html=1;fillColor=#d5e8d4;strokeColor=#82b366;" parent="1" edge="1">
                    <mxGeometry width="50" height="50" relative="1" as="geometry">
                        <mxPoint x="-100" y="-100" as="sourcePoint"/>
                        <mxPoint x="48" y="-100" as="targetPoint"/>
                    </mxGeometry>
                </mxCell>
                <mxCell id="154" style="edgeStyle=none;html=1;exitX=0.5;exitY=1;exitDx=0;exitDy=0;fillColor=#d5e8d4;strokeColor=#82b366;" parent="1" source="155" edge="1">
                    <mxGeometry relative="1" as="geometry">
                        <mxPoint x="45.111111111111086" y="-100" as="targetPoint"/>
                    </mxGeometry>
                </mxCell>
                <mxCell id="155" value="numero" style="ellipse;whiteSpace=wrap;html=1;fillColor=#d5e8d4;strokeColor=#82b366;" parent="1" vertex="1">
                    <mxGeometry x="15" y="-160" width="60" height="40" as="geometry"/>
                </mxCell>
                <mxCell id="162" style="edgeStyle=none;html=1;exitX=0.5;exitY=0;exitDx=0;exitDy=0;entryX=0.5;entryY=1;entryDx=0;entryDy=0;fillColor=#d5e8d4;strokeColor=#82b366;" parent="1" source="157" target="160" edge="1">
                    <mxGeometry relative="1" as="geometry"/>
                </mxCell>
                <mxCell id="157" value="se paga en" style="rhombus;whiteSpace=wrap;html=1;fillColor=#d5e8d4;strokeColor=#82b366;" parent="1" vertex="1">
                    <mxGeometry x="965" y="230" width="70" height="60" as="geometry"/>
                </mxCell>
                <mxCell id="166" style="edgeStyle=none;html=1;exitX=0.5;exitY=1;exitDx=0;exitDy=0;entryX=0.5;entryY=0;entryDx=0;entryDy=0;fillColor=#d5e8d4;strokeColor=#82b366;" parent="1" source="158" target="164" edge="1">
                    <mxGeometry relative="1" as="geometry"/>
                </mxCell>
                <mxCell id="158" value="va apara" style="rhombus;whiteSpace=wrap;html=1;fillColor=#d5e8d4;strokeColor=#82b366;" parent="1" vertex="1">
                    <mxGeometry x="965" y="520" width="70" height="60" as="geometry"/>
                </mxCell>
                <mxCell id="191" style="edgeStyle=none;html=1;exitX=0.5;exitY=0;exitDx=0;exitDy=0;fillColor=#d5e8d4;strokeColor=#82b366;" parent="1" source="160" edge="1">
                    <mxGeometry relative="1" as="geometry">
                        <mxPoint x="999.7142857142858" y="60" as="targetPoint"/>
                    </mxGeometry>
                </mxCell>
                <mxCell id="160" value="moneda" style="rounded=0;whiteSpace=wrap;html=1;fillColor=#d5e8d4;strokeColor=#82b366;" parent="1" vertex="1">
                    <mxGeometry x="940" y="100" width="120" height="60" as="geometry"/>
                </mxCell>
                <mxCell id="180" style="edgeStyle=none;html=1;exitX=0.5;exitY=1;exitDx=0;exitDy=0;fillColor=#d5e8d4;strokeColor=#82b366;" parent="1" source="164" edge="1">
                    <mxGeometry relative="1" as="geometry">
                        <mxPoint x="999.7142857142858" y="750" as="targetPoint"/>
                    </mxGeometry>
                </mxCell>
                <mxCell id="164" value="ciudad" style="rounded=0;whiteSpace=wrap;html=1;fillColor=#d5e8d4;strokeColor=#82b366;" parent="1" vertex="1">
                    <mxGeometry x="940" y="658" width="120" height="60" as="geometry"/>
                </mxCell>
                <mxCell id="177" style="edgeStyle=none;html=1;exitX=0.5;exitY=0;exitDx=0;exitDy=0;fillColor=#d5e8d4;strokeColor=#82b366;" parent="1" source="168" edge="1">
                    <mxGeometry relative="1" as="geometry">
                        <mxPoint x="930.1904761904761" y="750" as="targetPoint"/>
                    </mxGeometry>
                </mxCell>
                <mxCell id="168" value="nombre" style="ellipse;whiteSpace=wrap;html=1;fillColor=#d5e8d4;strokeColor=#82b366;" parent="1" vertex="1">
                    <mxGeometry x="900" y="773" width="60" height="40" as="geometry"/>
                </mxCell>
                <mxCell id="178" style="edgeStyle=none;html=1;exitX=0.5;exitY=0;exitDx=0;exitDy=0;fillColor=#d5e8d4;strokeColor=#82b366;" parent="1" source="170" edge="1">
                    <mxGeometry relative="1" as="geometry">
                        <mxPoint x="999.7142857142858" y="750" as="targetPoint"/>
                    </mxGeometry>
                </mxCell>
                <mxCell id="170" value="&lt;u&gt;id&lt;/u&gt;" style="ellipse;whiteSpace=wrap;html=1;fillColor=#d5e8d4;strokeColor=#82b366;" parent="1" vertex="1">
                    <mxGeometry x="970" y="773" width="60" height="40" as="geometry"/>
                </mxCell>
                <mxCell id="171" value="" style="endArrow=none;html=1;fillColor=#d5e8d4;strokeColor=#82b366;" parent="1" edge="1">
                    <mxGeometry width="50" height="50" relative="1" as="geometry">
                        <mxPoint x="926" y="748" as="sourcePoint"/>
                        <mxPoint x="1074" y="748" as="targetPoint"/>
                    </mxGeometry>
                </mxCell>
                <mxCell id="179" style="edgeStyle=none;html=1;exitX=0.5;exitY=0;exitDx=0;exitDy=0;fillColor=#d5e8d4;strokeColor=#82b366;" parent="1" source="173" edge="1">
                    <mxGeometry relative="1" as="geometry">
                        <mxPoint x="1070.1904761904761" y="750" as="targetPoint"/>
                    </mxGeometry>
                </mxCell>
                <mxCell id="173" value="pais" style="ellipse;whiteSpace=wrap;html=1;fillColor=#d5e8d4;strokeColor=#82b366;" parent="1" vertex="1">
                    <mxGeometry x="1040" y="773" width="60" height="40" as="geometry"/>
                </mxCell>
                <mxCell id="186" style="edgeStyle=none;html=1;exitX=0.5;exitY=1;exitDx=0;exitDy=0;fillColor=#d5e8d4;strokeColor=#82b366;" parent="1" source="187" edge="1">
                    <mxGeometry relative="1" as="geometry">
                        <mxPoint x="965.0967741935483" y="60" as="targetPoint"/>
                    </mxGeometry>
                </mxCell>
                <mxCell id="187" value="nombre" style="ellipse;whiteSpace=wrap;html=1;fillColor=#d5e8d4;strokeColor=#82b366;" parent="1" vertex="1">
                    <mxGeometry x="935" width="60" height="40" as="geometry"/>
                </mxCell>
                <mxCell id="188" style="edgeStyle=none;html=1;exitX=0.5;exitY=1;exitDx=0;exitDy=0;fillColor=#d5e8d4;strokeColor=#82b366;" parent="1" source="189" edge="1">
                    <mxGeometry relative="1" as="geometry">
                        <mxPoint x="1034.774193548387" y="60" as="targetPoint"/>
                    </mxGeometry>
                </mxCell>
                <mxCell id="189" value="&lt;u&gt;id&lt;/u&gt;" style="ellipse;whiteSpace=wrap;html=1;fillColor=#d5e8d4;strokeColor=#82b366;" parent="1" vertex="1">
                    <mxGeometry x="1005" width="60" height="40" as="geometry"/>
                </mxCell>
                <mxCell id="190" value="" style="endArrow=none;html=1;fillColor=#d5e8d4;strokeColor=#82b366;" parent="1" edge="1">
                    <mxGeometry width="50" height="50" relative="1" as="geometry">
                        <mxPoint x="960" y="60" as="sourcePoint"/>
                        <mxPoint x="1036" y="60.47999999999999" as="targetPoint"/>
                    </mxGeometry>
                </mxCell>
                <mxCell id="192" value="1" style="text;html=1;align=center;verticalAlign=middle;resizable=0;points=[];autosize=1;strokeColor=none;fillColor=none;" parent="1" vertex="1">
                    <mxGeometry x="250" y="340" width="30" height="30" as="geometry"/>
                </mxCell>
                <mxCell id="193" value="1" style="text;html=1;align=center;verticalAlign=middle;resizable=0;points=[];autosize=1;strokeColor=none;fillColor=none;" parent="1" vertex="1">
                    <mxGeometry x="250" y="150" width="30" height="30" as="geometry"/>
                </mxCell>
                <mxCell id="194" value="1" style="text;html=1;align=center;verticalAlign=middle;resizable=0;points=[];autosize=1;strokeColor=none;fillColor=none;" parent="1" vertex="1">
                    <mxGeometry x="970" y="160" width="30" height="30" as="geometry"/>
                </mxCell>
                <mxCell id="195" value="1" style="text;html=1;align=center;verticalAlign=middle;resizable=0;points=[];autosize=1;strokeColor=none;fillColor=none;" parent="1" vertex="1">
                    <mxGeometry x="970" y="340" width="30" height="30" as="geometry"/>
                </mxCell>
                <mxCell id="196" value="1" style="text;html=1;align=center;verticalAlign=middle;resizable=0;points=[];autosize=1;strokeColor=none;fillColor=none;" parent="1" vertex="1">
                    <mxGeometry x="940" y="630" width="30" height="30" as="geometry"/>
                </mxCell>
                <mxCell id="197" value="1" style="text;html=1;align=center;verticalAlign=middle;resizable=0;points=[];autosize=1;strokeColor=none;fillColor=none;" vertex="1" parent="1">
                    <mxGeometry x="-55" width="30" height="30" as="geometry"/>
                </mxCell>
                <mxCell id="198" value="1" style="text;html=1;align=center;verticalAlign=middle;resizable=0;points=[];autosize=1;strokeColor=none;fillColor=none;" vertex="1" parent="1">
                    <mxGeometry x="102" width="30" height="30" as="geometry"/>
                </mxCell>
                <mxCell id="199" value="1" style="text;html=1;align=center;verticalAlign=middle;resizable=0;points=[];autosize=1;strokeColor=none;fillColor=none;" vertex="1" parent="1">
                    <mxGeometry x="245" width="30" height="30" as="geometry"/>
                </mxCell>
                <mxCell id="200" value="1" style="text;html=1;align=center;verticalAlign=middle;resizable=0;points=[];autosize=1;strokeColor=none;fillColor=none;" vertex="1" parent="1">
                    <mxGeometry x="430" width="30" height="30" as="geometry"/>
                </mxCell>
                <mxCell id="201" value="1" style="text;html=1;align=center;verticalAlign=middle;resizable=0;points=[];autosize=1;strokeColor=none;fillColor=none;" vertex="1" parent="1">
                    <mxGeometry x="583" width="30" height="30" as="geometry"/>
                </mxCell>
                <mxCell id="202" value="1" style="text;html=1;align=center;verticalAlign=middle;resizable=0;points=[];autosize=1;strokeColor=none;fillColor=none;" vertex="1" parent="1">
                    <mxGeometry x="600" y="220" width="30" height="30" as="geometry"/>
                </mxCell>
                <mxCell id="203" value="1..*" style="text;html=1;align=center;verticalAlign=middle;resizable=0;points=[];autosize=1;strokeColor=none;fillColor=none;" vertex="1" parent="1">
                    <mxGeometry x="963" y="433" width="40" height="30" as="geometry"/>
                </mxCell>
                <mxCell id="204" value="1..*" style="text;html=1;align=center;verticalAlign=middle;resizable=0;points=[];autosize=1;strokeColor=none;fillColor=none;" vertex="1" parent="1">
                    <mxGeometry x="299" y="431" width="40" height="30" as="geometry"/>
                </mxCell>
                <mxCell id="205" value="1" style="text;html=1;align=center;verticalAlign=middle;resizable=0;points=[];autosize=1;strokeColor=none;fillColor=none;" vertex="1" parent="1">
                    <mxGeometry x="659" y="429" width="30" height="30" as="geometry"/>
                </mxCell>
            </root>
        </mxGraphModel>
    </diagram>
</mxfile>